<svg id="svg" version="1.1" xmlns="http://www.w3.org/2000/svg" xmlns:xlink="http://www.w3.org/1999/xlink" width="400" height="400" viewBox="0, 0, 400,400"><g id="svgg"><path id="path0" d="M0.000 200.000 L 0.000 400.000 200.000 400.000 L 400.000 400.000 400.000 200.000 L 400.000 0.000 200.000 0.000 L 0.000 0.000 0.000 200.000 M393.216 33.133 C 394.625 34.273,394.106 35.254,388.519 42.018 C 381.136 50.955,348.049 90.913,336.095 105.327 C 333.178 108.845,330.872 111.806,330.972 111.906 C 331.073 112.006,344.308 104.688,360.385 95.644 C 376.462 86.600,389.913 79.200,390.276 79.200 C 391.803 79.200,392.936 81.353,392.094 82.654 C 391.658 83.328,393.986 81.995,345.400 109.403 C 337.920 113.623,329.512 118.372,326.716 119.958 L 321.633 122.840 311.110 135.520 C 305.322 142.494,298.070 151.243,294.994 154.961 C 270.114 185.035,271.916 182.709,273.889 182.213 C 274.489 182.063,276.784 181.783,278.989 181.591 C 284.884 181.078,291.494 180.416,293.990 180.088 L 296.181 179.800 296.297 176.600 C 296.665 166.540,303.138 159.295,314.414 156.323 C 319.009 155.112,330.834 155.024,335.800 156.164 C 337.560 156.568,339.363 156.980,339.807 157.078 C 340.406 157.211,341.326 156.505,343.387 154.329 C 344.913 152.718,350.485 146.900,355.770 141.400 C 361.055 135.900,367.094 129.605,369.190 127.411 C 371.285 125.218,375.528 120.808,378.617 117.611 C 381.706 114.415,385.658 110.309,387.399 108.487 C 390.966 104.753,392.134 104.184,393.292 105.614 C 394.524 107.136,393.873 108.262,388.672 113.602 C 385.992 116.353,381.650 120.853,379.022 123.602 C 376.395 126.351,371.895 131.030,369.022 134.001 C 366.150 136.972,361.653 141.652,359.028 144.401 C 356.403 147.150,352.187 151.504,349.659 154.075 L 345.063 158.749 347.331 159.753 C 350.129 160.990,350.164 160.390,346.777 169.013 C 343.243 178.012,343.626 177.616,339.934 176.091 C 338.320 175.425,335.742 174.506,334.205 174.050 L 331.409 173.221 329.705 174.894 C 328.092 176.476,328.000 176.691,328.000 178.853 C 328.000 180.707,327.811 181.363,327.000 182.327 C 325.709 183.861,325.737 184.092,327.300 184.763 C 342.501 191.296,347.942 196.453,349.539 205.842 C 351.354 216.510,346.010 226.301,335.800 231.013 C 325.972 235.550,309.278 235.339,298.431 230.542 C 295.479 229.237,295.612 229.734,295.612 220.000 C 295.612 209.780,295.516 210.053,298.629 211.432 C 311.760 217.250,325.375 218.289,327.772 213.655 C 329.776 209.780,328.272 208.287,316.608 202.576 C 303.894 196.350,299.485 192.627,297.478 186.424 L 296.888 184.600 294.144 184.700 C 292.635 184.756,289.600 184.987,287.400 185.213 C 285.200 185.440,281.600 185.804,279.400 186.022 C 270.966 186.858,268.690 187.193,268.088 187.688 C 265.643 189.697,259.198 198.276,259.409 199.240 C 259.535 199.812,259.362 201.072,259.024 202.040 C 258.583 203.309,258.410 205.446,258.406 209.700 L 258.400 215.600 272.500 215.606 C 280.255 215.609,286.829 215.757,287.108 215.935 C 287.499 216.183,287.592 218.199,287.508 224.629 L 287.400 233.000 262.645 233.103 C 244.807 233.177,237.738 233.081,237.349 232.758 C 236.914 232.396,236.788 228.998,236.704 215.280 L 236.600 198.252 228.800 195.241 C 220.016 191.850,219.820 191.822,211.000 192.713 C 208.360 192.979,204.220 193.379,201.800 193.601 C 199.380 193.824,197.175 194.089,196.900 194.190 C 196.517 194.332,196.400 196.863,196.400 204.987 L 196.400 215.600 210.500 215.606 C 218.669 215.610,224.852 215.772,225.200 215.991 C 225.993 216.491,226.336 231.713,225.575 232.630 C 224.932 233.405,176.052 233.492,175.280 232.720 C 174.921 232.361,174.800 227.715,174.800 214.275 L 174.800 196.311 173.382 196.577 C 170.061 197.200,160.800 200.469,160.800 201.018 C 160.800 201.642,160.002 201.874,157.000 202.120 C 155.900 202.210,151.542 203.408,147.317 204.782 L 139.633 207.281 138.962 209.541 C 138.593 210.783,138.202 212.652,138.095 213.694 L 137.899 215.588 150.050 215.694 L 162.200 215.800 162.200 224.400 L 162.200 233.000 147.157 233.105 L 132.114 233.210 128.460 245.905 C 123.626 262.701,114.746 293.510,111.428 305.000 C 107.981 316.934,107.751 317.547,106.604 317.835 C 104.288 318.416,103.256 316.566,104.131 313.400 C 105.295 309.184,113.706 279.980,115.018 275.600 C 115.775 273.070,118.740 262.810,121.606 252.800 C 124.473 242.790,126.914 234.290,127.032 233.912 C 127.226 233.288,126.746 233.213,121.923 233.112 L 116.600 233.000 116.492 223.900 C 116.433 218.895,116.230 214.800,116.041 214.800 C 115.432 214.800,114.917 215.762,114.671 217.357 C 114.124 220.911,110.016 222.937,106.396 221.438 C 105.891 221.229,90.182 237.219,77.229 251.128 C 76.475 251.938,73.865 254.673,71.429 257.207 C 68.993 259.740,65.205 263.700,63.012 266.007 C 60.818 268.313,57.033 272.270,54.600 274.800 C 44.926 284.860,36.186 294.108,35.927 294.557 C 35.648 295.044,31.570 307.260,25.432 326.000 C 21.189 338.956,20.654 339.840,18.331 337.738 C 17.197 336.711,16.916 337.785,23.497 318.000 C 27.683 305.416,28.483 302.702,27.901 303.061 C 27.363 303.394,17.853 313.188,16.036 315.281 C 14.082 317.532,12.295 317.647,11.196 315.592 C 10.532 314.352,11.197 313.484,19.212 305.128 C 33.184 290.560,32.037 291.999,33.659 287.000 C 37.459 275.283,44.504 253.833,47.913 243.600 L 51.711 232.200 51.625 221.543 C 51.527 209.413,51.345 209.948,54.988 211.653 C 58.577 213.333,58.938 212.781,57.790 207.368 C 56.958 203.444,62.220 199.854,66.024 201.752 C 67.339 202.408,70.401 202.652,70.398 202.100 C 70.397 201.935,69.055 201.111,67.416 200.270 C 55.966 194.392,51.573 187.594,52.120 176.600 C 53.031 158.281,74.324 149.996,99.200 158.281 C 103.185 159.609,103.903 159.904,105.116 160.720 C 105.602 161.047,100.174 175.911,99.188 176.953 C 98.997 177.155,97.682 176.835,96.127 176.210 C 84.721 171.622,75.689 171.269,73.750 175.336 C 72.182 178.623,73.834 180.131,85.000 185.611 C 95.062 190.549,98.855 193.039,101.496 196.440 L 103.354 198.833 106.177 198.604 C 107.730 198.478,110.663 198.169,112.696 197.917 L 116.393 197.459 116.496 177.029 L 116.600 156.600 134.400 156.400 C 144.190 156.290,154.450 156.290,157.200 156.400 L 162.200 156.600 162.314 160.913 L 162.427 165.226 163.714 165.797 C 164.421 166.111,167.160 167.162,169.800 168.132 L 174.600 169.895 174.697 164.048 C 174.750 160.831,174.889 157.792,175.006 157.293 L 175.219 156.387 185.709 156.493 L 196.200 156.600 196.312 167.400 L 196.425 178.200 200.512 179.700 C 205.467 181.519,204.465 181.532,210.547 179.570 C 215.511 177.969,215.600 177.920,215.600 176.757 C 215.600 172.455,219.782 169.487,223.722 170.991 L 225.484 171.664 231.042 168.506 L 236.600 165.347 236.700 161.774 C 236.865 155.869,235.944 156.466,245.102 156.323 L 253.000 156.200 285.200 138.052 C 323.098 116.693,317.575 120.597,328.276 107.600 C 333.075 101.770,341.322 91.795,346.601 85.434 C 363.811 64.696,373.696 52.770,381.770 43.000 C 391.490 31.239,391.194 31.495,393.216 33.133 M307.394 130.848 C 306.517 131.314,304.630 132.374,303.200 133.203 C 301.770 134.032,295.020 137.849,288.200 141.686 C 262.763 155.998,258.993 158.156,258.703 158.573 C 258.539 158.808,258.449 164.490,258.503 171.200 L 258.600 183.400 261.600 183.272 C 263.250 183.202,264.892 183.062,265.249 182.961 C 265.606 182.861,268.841 179.228,272.438 174.889 C 276.036 170.550,282.862 162.320,287.609 156.600 C 292.355 150.880,298.910 142.960,302.176 139.000 C 305.442 135.040,308.480 131.395,308.927 130.900 C 309.944 129.773,309.447 129.756,307.394 130.848 M162.590 170.945 C 162.507 171.195,162.385 171.850,162.320 172.400 L 162.200 173.400 156.009 173.511 C 148.714 173.642,149.550 173.081,147.803 179.014 C 145.961 185.270,145.494 184.800,153.545 184.800 C 161.412 184.800,160.800 184.392,160.800 189.636 L 160.800 193.206 163.700 192.979 C 167.719 192.664,171.953 192.020,173.500 191.487 L 174.800 191.039 174.796 183.020 L 174.792 175.000 168.766 172.745 C 164.891 171.295,162.687 170.652,162.590 170.945 M232.092 173.310 C 228.551 175.266,227.539 176.015,227.377 176.800 C 226.580 180.649,224.613 182.193,220.470 182.219 C 217.473 182.238,212.800 183.313,212.800 183.984 C 212.800 184.967,220.945 187.297,223.566 187.063 C 233.281 186.197,235.457 185.972,236.089 185.772 C 236.702 185.577,237.308 170.748,236.700 170.810 C 236.645 170.816,234.571 171.941,232.092 173.310 M322.626 172.757 C 322.203 173.442,324.489 173.683,325.148 173.023 C 325.713 172.459,325.633 172.400,324.309 172.400 C 323.505 172.400,322.748 172.561,322.626 172.757 M138.000 179.223 L 138.000 184.846 139.664 184.723 L 141.328 184.600 142.813 179.400 C 144.574 173.228,144.692 173.600,140.976 173.600 L 138.000 173.600 138.000 179.223 M200.300 187.710 C 195.463 189.245,195.257 189.828,199.700 189.402 C 201.515 189.228,204.350 188.976,206.000 188.843 C 209.378 188.569,209.645 188.168,207.130 187.147 C 204.912 186.247,204.913 186.247,200.300 187.710 M258.667 188.267 C 258.336 188.597,258.314 190.581,258.638 190.904 C 258.872 191.139,261.200 188.725,261.200 188.247 C 261.200 187.914,259.003 187.931,258.667 188.267 M231.667 190.750 C 231.298 190.984,231.946 191.413,233.771 192.144 C 237.026 193.447,236.800 193.473,236.800 191.800 L 236.800 190.400 234.500 190.406 C 233.235 190.409,231.960 190.564,231.667 190.750 M113.800 202.272 C 112.700 202.342,110.307 202.599,108.483 202.843 L 105.165 203.288 105.414 206.744 C 105.734 211.183,105.787 211.342,106.768 210.817 C 107.739 210.297,110.615 210.273,111.556 210.777 C 112.028 211.029,112.944 210.953,114.330 210.547 L 116.400 209.940 116.400 205.970 C 116.400 203.786,116.265 202.032,116.100 202.072 C 115.935 202.112,114.900 202.202,113.800 202.272 M76.000 206.020 C 75.010 206.197,73.300 206.357,72.200 206.376 C 69.795 206.419,69.409 206.642,69.034 208.200 C 68.430 210.714,65.869 212.800,63.388 212.800 C 61.848 212.800,62.169 214.426,63.800 214.882 C 69.461 216.469,78.237 216.980,80.874 215.878 C 85.007 214.152,85.132 209.722,81.124 207.023 C 78.899 205.525,78.845 205.514,76.000 206.020 M56.227 232.055 C 55.973 232.811,53.677 239.835,48.398 256.000 C 45.920 263.590,42.862 272.905,41.603 276.700 C 40.344 280.495,39.441 283.600,39.596 283.600 C 39.751 283.600,40.932 282.475,42.220 281.100 C 43.508 279.725,48.166 274.820,52.571 270.200 C 56.976 265.580,62.295 260.002,64.390 257.804 C 66.486 255.606,70.186 251.736,72.614 249.204 C 83.935 237.396,88.390 232.657,88.276 232.543 C 88.234 232.500,87.209 232.728,85.999 233.049 C 78.533 235.028,65.907 234.474,57.305 231.789 C 56.706 231.602,56.349 231.690,56.227 232.055 " stroke="none" fill="#e3e3eb" fill-rule="evenodd"></path><path id="path1" d="M73.000 156.378 C 72.340 156.547,70.810 156.915,69.600 157.196 C 58.908 159.686,52.800 167.322,52.800 178.200 C 52.800 188.672,56.796 194.171,68.781 200.190 C 72.963 202.291,71.927 202.215,82.200 201.178 C 84.400 200.956,87.910 200.604,90.000 200.397 C 98.324 199.571,102.400 199.072,102.400 198.879 C 102.400 197.900,98.554 194.020,95.559 191.978 C 93.243 190.399,92.156 189.828,81.463 184.561 C 74.209 180.988,72.800 179.752,72.800 176.963 C 72.800 170.800,82.311 170.200,96.102 175.491 C 97.589 176.062,98.864 176.454,98.936 176.364 C 99.009 176.274,99.655 174.670,100.372 172.800 C 101.089 170.930,101.839 168.995,102.038 168.500 C 102.237 168.005,102.563 167.195,102.763 166.700 C 102.962 166.205,103.432 164.990,103.807 164.000 C 104.181 163.010,104.573 161.987,104.676 161.727 C 105.109 160.642,97.491 157.946,90.200 156.604 C 86.798 155.978,75.169 155.825,73.000 156.378 M316.000 156.604 C 303.771 159.384,296.874 166.916,296.814 177.556 L 296.800 180.111 299.300 179.845 C 303.293 179.421,309.933 178.776,313.394 178.477 L 316.589 178.200 316.821 176.800 C 317.352 173.594,319.758 172.000,324.062 172.000 L 326.672 172.000 333.387 164.984 C 337.080 161.125,340.034 157.916,339.951 157.853 C 339.868 157.790,338.720 157.512,337.400 157.236 C 336.080 156.960,334.245 156.569,333.323 156.367 C 330.922 155.842,318.614 156.010,316.000 156.604 M117.067 157.067 C 116.920 157.213,116.800 166.419,116.800 177.524 L 116.800 197.715 119.700 197.463 C 121.295 197.325,124.490 197.019,126.800 196.783 C 129.110 196.547,132.665 196.214,134.701 196.043 C 136.736 195.872,138.457 195.657,138.526 195.566 C 138.682 195.357,141.200 186.224,141.200 185.865 C 141.200 185.719,140.516 185.600,139.680 185.600 C 137.325 185.600,137.199 185.277,137.206 179.220 C 137.214 172.552,137.016 172.860,141.371 172.717 C 145.275 172.588,145.190 172.645,146.003 169.600 C 146.267 168.610,146.638 167.402,146.826 166.916 C 147.066 166.297,146.920 165.433,146.342 164.041 C 145.418 161.820,146.020 158.992,147.660 157.843 C 148.064 157.560,148.276 157.209,148.131 157.064 C 147.784 156.717,117.414 156.720,117.067 157.067 M154.400 157.200 C 154.400 157.420,154.535 157.601,154.700 157.603 C 155.467 157.610,156.800 160.349,156.800 161.919 C 156.800 163.688,157.390 164.170,160.500 164.942 L 161.600 165.215 161.600 161.008 L 161.600 156.800 158.000 156.800 C 155.867 156.800,154.400 156.963,154.400 157.200 M175.873 157.060 C 175.723 157.210,175.600 160.251,175.600 163.818 C 175.600 170.846,175.550 170.685,178.000 171.573 C 178.770 171.852,179.760 172.225,180.200 172.401 C 180.640 172.578,182.080 173.117,183.400 173.600 C 184.720 174.083,186.160 174.623,186.600 174.801 C 190.661 176.440,193.972 177.609,194.800 177.695 L 195.800 177.800 195.800 167.400 L 195.800 157.000 185.973 156.893 C 180.569 156.834,176.024 156.909,175.873 157.060 M237.867 157.067 C 237.720 157.213,237.600 159.013,237.600 161.067 C 237.600 164.769,237.897 165.477,239.020 164.454 C 239.229 164.263,240.435 163.543,241.700 162.854 C 250.059 158.297,251.624 157.357,251.334 157.068 C 250.985 156.719,238.215 156.718,237.867 157.067 M255.200 159.874 C 254.210 160.446,252.590 161.363,251.600 161.912 C 250.610 162.461,248.630 163.580,247.200 164.400 C 244.262 166.084,241.312 167.736,239.100 168.935 L 237.600 169.748 237.600 177.733 L 237.600 185.718 241.300 185.446 C 245.071 185.170,250.056 184.705,254.900 184.178 L 257.600 183.884 257.600 171.342 C 257.600 164.444,257.465 158.808,257.300 158.817 C 257.135 158.826,256.190 159.302,255.200 159.874 M338.336 165.634 C 331.144 173.174,331.540 172.532,333.689 173.181 C 334.630 173.465,336.976 174.305,338.903 175.049 C 340.829 175.792,342.565 176.400,342.760 176.400 C 343.153 176.400,348.803 162.556,348.801 161.598 C 348.801 161.266,348.215 160.760,347.500 160.471 C 346.785 160.183,345.887 159.779,345.505 159.574 C 345.123 159.368,344.735 159.200,344.642 159.200 C 344.549 159.200,341.711 162.095,338.336 165.634 M151.662 167.543 C 150.692 167.816,149.618 170.093,149.606 171.900 C 149.600 172.794,149.643 172.800,155.600 172.800 L 161.600 172.800 161.600 171.249 C 161.600 169.865,161.459 169.644,160.300 169.208 C 158.618 168.576,157.659 168.204,156.281 167.650 C 155.075 167.165,153.166 167.121,151.662 167.543 M175.600 183.000 C 175.600 191.690,175.419 191.235,178.486 190.249 C 179.429 189.946,183.170 188.760,186.800 187.613 C 195.516 184.860,196.086 184.605,195.927 183.512 C 195.777 182.479,196.015 182.584,181.500 177.169 C 179.685 176.492,177.887 175.772,177.505 175.569 C 175.633 174.574,175.600 174.702,175.600 183.000 M315.800 182.282 C 304.417 183.193,297.600 184.106,297.600 184.719 C 297.600 189.305,305.244 196.717,314.200 200.816 C 327.149 206.741,328.800 207.924,328.800 211.278 C 328.800 218.538,316.573 219.277,300.600 212.984 C 299.060 212.377,297.629 211.728,297.420 211.540 C 296.497 210.714,296.391 211.698,296.492 220.095 L 296.600 228.990 297.766 229.548 C 308.951 234.906,326.153 235.043,336.779 229.858 C 349.175 223.809,353.341 205.728,344.574 196.024 C 340.699 191.735,326.002 183.706,323.456 184.487 C 322.173 184.881,318.400 183.624,318.400 182.803 C 318.400 182.390,317.273 182.164,315.800 182.282 M145.385 186.100 C 144.748 187.781,142.846 194.979,142.999 195.132 C 143.100 195.233,144.762 195.121,146.691 194.882 C 148.621 194.644,152.405 194.224,155.100 193.949 L 160.000 193.450 160.000 189.525 L 160.000 185.600 152.787 185.600 C 147.385 185.600,145.527 185.725,145.385 186.100 M254.335 188.199 C 254.156 188.378,248.996 188.899,242.000 189.444 C 237.436 189.800,237.542 189.736,237.680 192.059 C 237.796 194.030,237.849 194.111,239.400 194.686 C 240.280 195.011,242.350 195.802,244.000 196.441 C 247.660 197.860,248.266 197.878,249.278 196.592 C 250.558 194.964,252.281 194.275,254.431 194.529 C 257.045 194.839,257.600 194.162,257.600 190.669 L 257.600 188.000 256.067 188.000 C 255.223 188.000,254.444 188.089,254.335 188.199 M194.781 189.220 C 194.461 189.422,193.806 189.591,193.324 189.594 C 192.842 189.597,192.319 189.807,192.162 190.061 C 191.811 190.629,195.088 190.272,195.683 189.677 C 196.222 189.138,195.493 188.769,194.781 189.220 M193.800 194.252 C 193.140 194.321,190.620 194.567,188.200 194.798 C 185.780 195.029,181.953 195.421,179.696 195.669 L 175.592 196.119 175.696 214.360 L 175.800 232.600 200.400 232.600 L 225.000 232.600 225.000 224.600 L 225.000 216.600 210.600 216.400 L 196.200 216.200 196.000 205.233 C 195.875 198.393,195.649 194.240,195.400 194.196 C 195.180 194.158,194.460 194.183,193.800 194.252 M147.200 198.820 C 146.210 198.997,144.476 199.154,143.347 199.170 C 141.490 199.197,141.275 199.295,141.104 200.191 C 140.780 201.885,141.981 202.061,145.573 200.848 C 146.798 200.435,148.835 199.788,150.100 199.411 C 151.365 199.034,152.400 198.652,152.400 198.563 C 152.400 198.308,149.188 198.467,147.200 198.820 M237.696 215.500 L 237.800 232.600 262.400 232.600 L 287.000 232.600 287.000 224.600 L 287.000 216.600 272.835 216.495 C 263.193 216.423,258.499 216.248,258.135 215.946 C 257.734 215.613,257.600 214.058,257.600 209.718 C 257.600 206.536,257.465 204.003,257.300 204.088 C 253.624 205.980,252.039 205.843,249.374 203.402 C 248.536 202.634,247.479 201.904,247.025 201.778 C 246.571 201.653,245.840 201.398,245.400 201.213 C 243.176 200.277,238.162 198.396,237.896 198.398 C 237.728 198.399,237.638 206.095,237.696 215.500 M132.358 200.176 C 132.261 200.272,129.936 200.561,127.191 200.818 C 124.446 201.075,121.030 201.401,119.600 201.543 L 117.000 201.800 116.884 205.307 C 116.726 210.093,116.765 210.137,120.200 209.016 C 121.740 208.514,125.915 207.157,129.477 206.001 C 136.143 203.836,136.205 203.797,136.804 201.300 L 137.116 200.000 134.825 200.000 C 133.564 200.000,132.454 200.079,132.358 200.176 M158.494 200.708 C 157.441 200.881,157.688 201.600,158.800 201.600 C 159.588 201.600,160.235 200.963,159.707 200.707 C 159.538 200.626,158.992 200.626,158.494 200.708 M99.949 203.385 C 99.847 203.486,97.702 203.753,95.182 203.977 C 78.706 205.441,79.750 205.216,81.970 206.824 C 85.842 209.629,85.614 214.124,81.492 216.256 C 79.059 217.514,71.420 217.383,65.600 215.984 C 61.105 214.903,61.999 213.916,58.820 223.467 C 56.524 230.362,56.431 231.017,57.700 231.326 C 58.195 231.446,59.320 231.740,60.200 231.980 C 68.476 234.234,79.970 234.143,87.941 231.760 C 91.446 230.712,102.613 219.354,103.484 215.951 C 103.765 214.855,104.176 213.619,104.397 213.205 C 104.841 212.376,104.945 206.425,104.550 204.450 C 104.316 203.281,100.854 202.479,99.949 203.385 M129.400 210.109 C 127.420 210.778,123.820 211.976,121.400 212.770 L 117.000 214.214 117.000 223.407 L 117.000 232.600 122.400 232.600 L 127.800 232.600 129.736 226.000 C 130.801 222.370,131.846 218.770,132.058 218.000 C 132.271 217.230,132.605 216.060,132.800 215.400 C 135.047 207.803,135.256 208.129,129.400 210.109 M52.256 211.478 C 51.860 211.874,51.954 228.724,52.354 228.971 C 52.757 229.221,53.093 228.428,54.713 223.400 C 55.351 221.420,56.262 218.606,56.737 217.147 C 57.887 213.613,57.925 213.737,55.300 212.546 C 54.035 211.972,52.890 211.440,52.756 211.362 C 52.621 211.285,52.396 211.337,52.256 211.478 M136.593 216.600 C 136.457 217.040,136.168 218.030,135.950 218.800 C 135.156 221.611,134.843 222.689,133.455 227.400 C 132.678 230.040,132.178 232.337,132.346 232.505 C 132.513 232.673,139.119 232.763,147.025 232.705 L 161.400 232.600 161.400 224.400 L 161.400 216.200 149.120 216.000 C 137.101 215.804,136.835 215.817,136.593 216.600 " stroke="none" fill="#050506" fill-rule="evenodd"></path><path id="path2" d="M390.713 33.300 C 390.361 33.575,385.061 39.848,378.936 47.239 C 321.994 115.957,319.729 118.664,318.302 119.716 C 316.978 120.691,312.108 123.498,302.100 129.055 C 301.055 129.635,299.030 130.780,297.600 131.600 C 296.170 132.420,294.145 133.565,293.100 134.145 C 292.055 134.725,290.345 135.675,289.300 136.255 C 288.255 136.835,286.230 137.980,284.800 138.800 C 283.370 139.620,281.345 140.765,280.300 141.345 C 275.557 143.979,274.356 144.654,270.600 146.801 C 268.400 148.058,265.520 149.677,264.200 150.398 C 262.880 151.119,260.630 152.380,259.200 153.199 C 253.962 156.203,252.754 156.800,251.919 156.800 C 251.450 156.800,251.187 156.920,251.334 157.068 C 251.588 157.322,250.816 157.819,246.200 160.375 C 245.100 160.984,243.490 161.885,242.623 162.377 C 241.756 162.870,240.192 163.719,239.148 164.265 C 238.104 164.811,237.037 165.515,236.776 165.829 C 236.515 166.143,236.161 166.400,235.988 166.400 C 235.816 166.400,233.481 167.660,230.800 169.200 C 226.156 171.868,224.348 172.487,223.800 171.600 C 223.396 170.946,219.676 171.132,218.563 171.861 C 217.252 172.720,216.000 175.202,216.000 176.942 L 216.000 178.315 210.826 180.007 C 207.595 181.063,205.228 181.624,204.526 181.500 C 202.742 181.185,196.641 178.835,196.200 178.292 C 195.980 178.021,195.350 177.753,194.800 177.695 C 193.972 177.609,190.661 176.440,186.600 174.801 C 186.160 174.623,184.720 174.083,183.400 173.600 C 182.080 173.117,180.640 172.578,180.200 172.401 C 179.760 172.225,178.770 171.853,178.000 171.574 C 177.230 171.296,176.330 170.851,176.000 170.586 C 175.670 170.321,175.168 170.188,174.884 170.291 C 174.601 170.393,172.891 169.902,171.084 169.199 C 169.278 168.496,166.540 167.432,165.000 166.835 L 162.200 165.750 161.979 161.375 L 161.758 157.000 161.679 161.108 L 161.600 165.215 160.500 164.942 C 157.355 164.161,156.800 163.697,156.800 161.849 C 156.800 160.660,156.517 159.742,155.909 158.954 C 154.420 157.027,154.182 156.872,152.563 156.764 C 150.199 156.607,147.834 156.767,148.131 157.064 C 148.276 157.209,148.064 157.560,147.660 157.843 C 146.020 158.992,145.418 161.820,146.342 164.041 C 146.920 165.433,147.066 166.297,146.826 166.916 C 146.638 167.402,146.267 168.610,146.003 169.600 C 145.192 172.638,145.282 172.578,141.158 172.823 L 137.400 173.047 141.100 173.123 C 145.119 173.207,145.341 173.376,144.442 175.681 C 144.245 176.187,143.860 177.410,143.588 178.400 C 141.637 185.483,141.806 185.189,139.651 185.270 L 137.800 185.340 139.500 185.493 C 141.523 185.675,141.478 185.230,140.000 190.400 C 138.427 195.904,138.399 195.707,140.700 195.373 C 143.046 195.033,142.604 195.680,144.127 190.354 L 145.429 185.800 152.614 185.586 L 159.800 185.372 152.924 185.286 C 149.142 185.239,145.958 185.055,145.848 184.878 C 145.646 184.550,148.423 174.533,148.956 173.672 C 149.155 173.349,151.172 173.172,155.324 173.112 L 161.400 173.023 155.500 172.901 C 148.827 172.763,148.971 172.857,150.164 169.400 C 151.029 166.894,153.783 166.546,158.200 168.386 C 158.640 168.569,159.585 168.939,160.300 169.208 C 161.416 169.628,161.609 169.902,161.664 171.149 L 161.728 172.600 161.892 171.264 C 162.085 169.692,162.313 169.706,167.200 171.581 C 168.850 172.215,171.325 173.152,172.700 173.664 C 174.075 174.177,175.200 174.816,175.200 175.085 C 175.200 175.366,175.468 175.472,175.827 175.334 C 176.172 175.202,176.847 175.280,177.327 175.509 C 178.142 175.896,179.657 176.477,188.100 179.634 C 189.915 180.313,192.480 181.296,193.800 181.818 C 195.120 182.341,196.695 182.885,197.300 183.027 C 199.062 183.443,198.384 184.278,196.000 184.630 C 195.670 184.678,194.860 184.917,194.200 185.160 C 192.631 185.737,184.310 188.439,180.035 189.760 C 178.185 190.332,176.359 190.800,175.978 190.800 C 175.597 190.800,175.182 191.070,175.055 191.400 C 174.776 192.128,175.618 192.162,180.179 191.610 C 181.951 191.395,185.200 191.022,187.400 190.780 C 189.600 190.538,191.760 190.188,192.200 190.001 C 192.852 189.725,194.639 189.213,195.600 189.026 C 195.710 189.005,196.007 188.856,196.259 188.695 C 196.512 188.535,198.402 187.852,200.459 187.178 C 204.507 185.853,205.467 185.857,208.638 187.216 C 210.589 188.053,211.905 188.204,216.133 188.080 C 219.383 187.985,219.522 187.413,216.573 186.278 C 215.488 185.860,214.240 185.373,213.800 185.195 C 213.360 185.018,212.670 184.766,212.267 184.636 C 209.826 183.849,215.864 181.626,220.486 181.610 C 224.221 181.598,226.214 180.304,226.645 177.612 C 227.004 175.362,226.312 175.903,234.700 171.318 C 236.075 170.567,237.203 170.098,237.206 170.276 C 237.209 170.454,237.344 170.396,237.506 170.146 C 237.784 169.717,238.551 169.245,242.800 166.889 C 243.790 166.339,245.770 165.220,247.200 164.400 C 248.630 163.580,250.655 162.435,251.700 161.855 C 252.745 161.275,254.400 160.350,255.377 159.800 C 256.354 159.250,257.254 158.800,257.377 158.800 C 257.500 158.800,257.640 164.425,257.689 171.300 L 257.778 183.800 257.989 170.933 C 258.105 163.856,258.290 157.987,258.400 157.892 C 258.510 157.796,259.590 157.178,260.800 156.517 C 264.152 154.687,266.505 153.366,272.400 150.000 C 275.370 148.304,278.655 146.441,279.700 145.859 C 280.745 145.276,282.455 144.324,283.500 143.743 C 284.545 143.161,287.200 141.657,289.400 140.399 C 291.600 139.142,294.480 137.521,295.800 136.797 C 297.120 136.073,300.830 133.978,304.043 132.141 C 312.866 127.097,312.873 127.035,303.321 138.467 C 299.400 143.160,294.123 149.519,291.596 152.597 C 289.068 155.675,286.615 158.645,286.145 159.197 C 279.975 166.438,266.800 182.533,266.800 182.828 C 266.800 183.041,267.205 183.132,267.700 183.031 C 268.195 182.929,269.305 182.732,270.167 182.592 C 271.187 182.427,272.024 181.968,272.567 181.276 C 273.025 180.692,277.063 175.801,281.540 170.407 C 286.017 165.013,290.268 159.880,290.988 159.000 C 291.707 158.120,296.414 152.433,301.448 146.362 C 306.482 140.292,312.933 132.501,315.784 129.050 C 320.990 122.750,321.872 121.974,327.000 119.188 C 328.320 118.471,331.830 116.496,334.800 114.801 C 339.805 111.943,341.047 111.242,346.000 108.487 C 346.990 107.936,349.600 106.457,351.800 105.200 C 354.000 103.943,356.610 102.464,357.600 101.914 C 358.590 101.363,360.120 100.502,361.000 100.000 C 361.880 99.498,363.410 98.638,364.400 98.089 C 365.390 97.539,367.370 96.420,368.800 95.600 C 370.230 94.780,372.210 93.661,373.200 93.111 C 382.591 87.903,391.631 82.673,391.847 82.324 C 392.228 81.707,391.649 80.104,390.949 79.836 C 390.152 79.530,388.361 80.408,380.000 85.200 C 378.570 86.020,376.545 87.165,375.500 87.745 C 370.913 90.292,369.511 91.082,364.663 93.859 C 361.838 95.476,359.471 96.800,359.404 96.800 C 359.336 96.800,356.454 98.420,353.000 100.400 C 349.546 102.380,346.666 104.000,346.600 104.000 C 346.534 104.000,343.654 105.620,340.200 107.600 C 336.746 109.580,333.856 111.200,333.777 111.200 C 333.699 111.200,332.719 111.740,331.600 112.400 C 329.381 113.709,329.200 113.772,329.200 113.246 C 329.200 112.953,331.896 109.430,333.400 107.758 C 333.620 107.513,338.390 101.765,344.000 94.985 C 349.610 88.205,358.700 77.232,364.200 70.601 C 369.700 63.969,374.702 57.926,375.316 57.172 C 375.930 56.417,380.070 51.421,384.516 46.069 C 394.239 34.364,394.003 34.709,393.018 33.620 C 392.162 32.674,391.612 32.598,390.713 33.300 M79.491 155.889 C 80.201 155.977,81.461 155.979,82.291 155.892 C 83.121 155.805,82.540 155.733,81.000 155.731 C 79.460 155.729,78.781 155.800,79.491 155.889 M323.700 155.891 C 324.525 155.978,325.875 155.978,326.700 155.891 C 327.525 155.805,326.850 155.734,325.200 155.734 C 323.550 155.734,322.875 155.805,323.700 155.891 M52.493 178.000 C 52.493 178.770,52.575 179.085,52.676 178.700 C 52.776 178.315,52.776 177.685,52.676 177.300 C 52.575 176.915,52.493 177.230,52.493 178.000 M260.990 189.571 C 258.472 192.777,258.076 192.867,257.894 190.280 C 257.751 188.249,257.746 188.261,257.674 190.769 C 257.576 194.153,256.991 194.832,254.431 194.529 C 252.281 194.275,250.558 194.964,249.278 196.592 C 248.259 197.887,247.543 197.861,244.000 196.400 C 242.399 195.740,240.933 195.200,240.741 195.200 C 240.548 195.200,239.628 194.864,238.696 194.452 C 237.763 194.041,236.190 193.466,235.200 193.175 C 234.210 192.883,232.590 192.300,231.600 191.878 C 230.208 191.286,228.940 191.124,226.011 191.165 C 220.117 191.247,220.354 191.676,227.800 194.400 C 229.120 194.883,230.560 195.424,231.000 195.602 C 231.440 195.780,232.610 196.227,233.600 196.596 C 234.590 196.964,235.940 197.501,236.600 197.788 C 237.260 198.076,239.330 198.888,241.200 199.593 C 243.070 200.299,244.960 201.028,245.400 201.213 C 245.840 201.398,246.571 201.653,247.025 201.778 C 247.479 201.904,248.536 202.634,249.374 203.402 C 252.039 205.843,253.624 205.980,257.300 204.088 C 257.465 204.003,257.633 206.603,257.674 209.867 L 257.748 215.800 257.978 209.000 C 258.130 204.476,258.385 201.886,258.738 201.263 C 259.029 200.747,259.158 199.889,259.024 199.355 C 258.702 198.068,258.894 197.759,263.356 192.400 C 267.861 186.989,267.793 187.200,265.027 187.200 L 262.853 187.200 260.990 189.571 M163.400 197.223 C 162.520 197.405,160.864 197.564,159.720 197.577 C 156.431 197.613,152.647 198.490,145.573 200.855 C 144.349 201.265,142.943 201.600,142.450 201.600 C 141.954 201.600,141.663 201.779,141.800 202.000 C 141.936 202.220,141.772 202.400,141.435 202.400 C 140.955 202.400,140.870 202.069,141.039 200.859 L 141.255 199.319 139.513 199.583 C 137.349 199.911,136.800 200.240,136.800 201.205 C 136.800 203.418,136.175 203.826,129.456 206.007 C 125.905 207.160,121.740 208.513,120.201 209.014 C 118.159 209.679,117.322 209.800,117.107 209.463 C 116.908 209.150,116.810 209.201,116.806 209.620 C 116.798 210.449,114.242 211.334,112.221 211.208 C 108.736 210.990,106.737 211.103,106.299 211.541 C 105.481 212.359,105.244 212.037,105.095 209.900 L 104.948 207.800 104.874 210.126 C 104.833 211.406,104.619 212.791,104.397 213.205 C 104.176 213.619,103.765 214.855,103.484 215.951 C 102.931 218.115,91.067 231.193,89.645 231.206 C 89.290 231.209,88.730 231.401,88.400 231.632 C 87.936 231.957,88.014 231.992,88.743 231.786 C 90.384 231.321,89.471 232.403,79.439 242.800 C 75.502 246.880,65.098 257.781,55.209 268.187 C 53.334 270.160,49.626 274.030,46.968 276.787 C 38.605 285.464,38.617 285.448,37.296 289.300 C 35.801 293.658,35.846 293.652,40.404 288.900 C 42.462 286.755,46.137 282.930,48.573 280.400 C 52.555 276.262,63.683 264.598,72.791 255.013 C 74.666 253.040,78.366 249.170,81.013 246.413 C 83.660 243.656,87.440 239.696,89.413 237.613 C 91.386 235.530,95.177 231.570,97.838 228.813 C 100.499 226.056,103.317 223.083,104.101 222.206 C 105.488 220.656,105.564 220.626,106.892 221.106 C 110.718 222.490,114.400 220.097,114.400 216.227 C 114.400 215.015,114.555 214.780,115.500 214.563 C 116.522 214.328,120.051 213.207,129.665 210.064 C 135.307 208.219,135.031 207.737,132.777 215.500 C 132.570 216.215,132.236 217.385,132.037 218.100 C 131.837 218.815,130.765 222.550,129.656 226.400 C 128.546 230.250,126.355 237.900,124.787 243.400 C 123.218 248.900,121.780 253.940,121.590 254.600 C 121.400 255.260,121.045 256.520,120.800 257.400 C 120.555 258.280,120.185 259.585,119.977 260.300 C 119.770 261.015,119.420 262.230,119.200 263.000 C 118.980 263.770,118.620 265.030,118.400 265.800 C 118.180 266.570,117.835 267.785,117.633 268.500 C 117.431 269.215,115.976 274.210,114.400 279.600 C 112.824 284.990,111.359 290.030,111.145 290.800 C 110.930 291.570,110.595 292.740,110.400 293.400 C 110.205 294.060,109.865 295.230,109.645 296.000 C 109.425 296.770,109.065 298.030,108.845 298.800 C 108.625 299.570,108.255 300.875,108.023 301.700 C 107.790 302.525,107.410 303.875,107.177 304.700 C 106.516 307.048,106.145 308.329,104.975 312.304 C 103.921 315.883,103.909 316.036,104.604 316.804 C 105.859 318.191,107.674 317.193,108.126 314.868 C 108.241 314.281,108.539 313.080,108.790 312.200 C 109.040 311.320,109.425 309.970,109.645 309.200 C 109.865 308.430,110.225 307.170,110.445 306.400 C 111.290 303.442,111.628 302.279,114.800 291.400 C 116.596 285.240,118.241 279.570,118.455 278.800 C 118.670 278.030,119.015 276.815,119.223 276.100 C 119.430 275.385,119.790 274.125,120.023 273.300 C 120.561 271.390,121.142 269.355,121.623 267.700 C 121.830 266.985,122.165 265.815,122.367 265.100 C 122.569 264.385,124.024 259.390,125.600 254.000 C 127.176 248.610,128.631 243.615,128.833 242.900 C 129.035 242.185,129.390 240.925,129.623 240.100 C 129.855 239.275,130.227 237.970,130.450 237.200 C 130.673 236.430,130.957 235.350,131.082 234.800 C 131.206 234.250,131.498 233.560,131.730 233.267 C 131.963 232.973,132.179 232.433,132.211 232.067 C 132.242 231.700,132.577 230.320,132.956 229.000 C 133.929 225.605,135.228 221.177,135.595 220.000 C 135.767 219.450,136.135 218.241,136.413 217.313 C 136.692 216.386,137.072 215.721,137.260 215.837 C 137.447 215.953,137.600 215.209,137.600 214.185 C 137.600 208.210,138.772 206.967,146.800 204.425 C 150.430 203.276,153.813 202.170,154.319 201.968 C 154.824 201.765,155.870 201.600,156.642 201.600 C 157.477 201.600,157.947 201.438,157.800 201.200 C 157.664 200.980,157.923 200.778,158.376 200.750 C 159.506 200.681,159.684 200.633,160.600 200.147 C 161.040 199.913,163.020 199.215,165.000 198.595 C 166.980 197.975,168.771 197.318,168.980 197.134 C 169.455 196.716,165.549 196.779,163.400 197.223 M296.092 220.051 C 296.009 227.880,296.067 228.754,296.700 229.251 C 297.318 229.736,297.342 229.726,296.908 229.169 C 296.563 228.726,296.382 225.982,296.300 219.969 L 296.183 211.400 296.092 220.051 M161.400 224.400 C 161.400 228.978,161.535 232.640,161.700 232.538 C 161.865 232.436,162.000 228.774,162.000 224.400 C 162.000 220.026,161.865 216.364,161.700 216.262 C 161.535 216.160,161.400 219.822,161.400 224.400 M203.300 216.299 C 207.205 216.365,213.595 216.365,217.500 216.299 C 221.405 216.234,218.210 216.180,210.400 216.180 C 202.590 216.180,199.395 216.234,203.300 216.299 M263.200 216.285 C 275.811 216.566,287.108 216.573,286.939 216.300 C 286.836 216.135,280.328 216.039,272.476 216.087 C 264.624 216.135,260.450 216.224,263.200 216.285 M342.378 225.900 L 341.000 227.400 342.500 226.022 C 343.896 224.738,344.184 224.400,343.878 224.400 C 343.812 224.400,343.137 225.075,342.378 225.900 M24.756 300.079 C 21.150 303.874,16.872 308.371,15.249 310.072 C 11.244 314.273,11.051 314.572,11.687 315.590 C 13.071 317.807,12.738 318.067,24.462 305.663 C 29.311 300.533,32.720 294.587,31.508 293.375 C 31.401 293.267,28.362 296.284,24.756 300.079 " stroke="none" fill="#0a50ad" fill-rule="evenodd"></path><path id="path3" d="M386.678 109.665 C 379.994 116.533,370.097 126.818,350.008 147.772 C 347.914 149.956,343.222 154.816,339.582 158.572 C 335.941 162.327,331.261 167.224,329.182 169.452 L 325.400 173.505 322.972 173.552 C 320.360 173.604,317.586 175.333,316.800 177.400 C 316.503 178.182,316.082 178.312,313.132 178.534 C 309.386 178.816,303.657 179.367,298.000 179.989 C 295.910 180.219,292.310 180.586,290.000 180.803 C 287.690 181.021,284.000 181.381,281.800 181.602 C 279.600 181.824,275.820 182.181,273.400 182.396 C 270.980 182.611,267.200 182.980,265.000 183.217 C 262.800 183.454,259.920 183.721,258.600 183.812 C 256.317 183.968,253.592 184.251,245.355 185.186 C 243.350 185.414,240.931 185.600,239.979 185.600 C 239.027 185.600,237.247 185.774,236.024 185.987 C 234.801 186.201,231.820 186.555,229.400 186.775 C 218.498 187.768,215.583 188.046,212.400 188.397 C 207.283 188.961,200.917 189.590,198.000 189.818 C 196.570 189.930,193.690 190.192,191.600 190.401 C 189.510 190.610,186.000 190.960,183.800 191.179 C 181.600 191.399,178.090 191.754,176.000 191.969 C 167.517 192.843,163.280 193.250,161.000 193.408 C 159.680 193.499,156.980 193.753,155.000 193.971 C 150.763 194.437,145.318 194.981,130.600 196.407 C 126.386 196.815,123.223 197.138,115.100 197.987 C 111.670 198.345,109.247 198.578,98.000 199.628 C 92.703 200.123,87.274 200.657,82.400 201.165 C 70.908 202.362,67.570 202.550,66.257 202.075 C 61.069 200.199,57.265 203.450,58.398 208.791 C 58.808 210.721,58.791 211.315,58.297 212.448 C 57.973 213.191,57.296 215.150,56.794 216.800 C 56.291 218.450,55.179 221.870,54.322 224.400 C 53.466 226.930,52.717 229.180,52.658 229.400 C 52.599 229.620,52.419 230.250,52.257 230.800 C 51.860 232.152,44.775 253.873,39.993 268.400 C 37.857 274.890,34.079 286.410,31.597 294.000 C 29.116 301.590,25.511 312.570,23.586 318.400 C 17.063 338.155,17.093 338.000,19.831 338.000 C 21.353 338.000,20.044 341.560,33.134 301.800 C 35.959 293.220,39.588 282.150,41.199 277.200 C 42.810 272.250,45.871 262.890,48.000 256.400 C 50.129 249.910,52.841 241.630,54.027 238.000 C 55.212 234.370,56.321 231.340,56.491 231.267 C 56.661 231.193,56.800 230.782,56.800 230.353 C 56.800 229.661,60.505 218.125,61.544 215.581 C 61.764 215.041,62.051 214.105,62.180 213.500 C 62.361 212.654,62.648 212.400,63.420 212.400 C 66.032 212.400,68.586 210.238,68.865 207.790 C 69.022 206.416,69.510 206.295,77.800 205.585 C 80.440 205.359,84.220 205.015,86.200 204.820 C 88.180 204.624,91.780 204.270,94.200 204.033 C 96.620 203.795,100.310 203.425,102.400 203.210 C 109.954 202.432,114.649 201.981,117.200 201.787 C 118.630 201.678,121.240 201.423,123.000 201.220 C 124.760 201.016,128.360 200.650,131.000 200.406 C 133.640 200.161,137.420 199.798,139.400 199.597 C 141.380 199.397,144.980 199.041,147.400 198.807 C 149.820 198.572,153.555 198.204,155.700 197.990 C 157.845 197.775,161.445 197.416,163.700 197.192 C 165.955 196.968,169.344 196.597,171.230 196.369 C 173.117 196.141,174.827 196.002,175.030 196.062 C 175.234 196.121,177.335 195.952,179.700 195.685 C 182.065 195.418,185.845 195.019,188.100 194.798 C 190.355 194.577,193.190 194.292,194.400 194.166 C 195.610 194.039,198.130 193.782,200.000 193.593 C 201.870 193.405,205.290 193.059,207.600 192.825 C 209.910 192.590,213.780 192.214,216.200 191.990 C 220.692 191.574,225.631 191.094,232.400 190.418 C 234.490 190.210,238.270 189.840,240.800 189.598 C 243.330 189.355,247.200 188.977,249.400 188.758 C 251.600 188.540,254.480 188.274,255.800 188.169 C 258.294 187.969,263.496 187.430,269.000 186.800 C 270.760 186.599,274.270 186.241,276.800 186.004 C 279.330 185.767,283.020 185.408,285.000 185.206 C 286.980 185.004,290.760 184.644,293.400 184.407 C 299.711 183.839,304.932 183.326,309.600 182.815 C 315.689 182.148,317.838 182.181,318.608 182.951 C 322.369 186.712,328.000 183.766,328.000 178.036 C 328.000 176.257,328.145 175.972,329.900 174.310 C 330.945 173.321,333.233 171.001,334.985 169.156 C 341.818 161.956,346.748 156.796,351.379 152.000 C 367.015 135.803,375.024 127.465,375.200 127.199 C 375.310 127.033,379.360 122.816,384.200 117.829 C 393.093 108.664,394.130 107.333,393.344 106.079 C 392.294 104.404,391.254 104.963,386.678 109.665 " stroke="none" fill="#f81717" fill-rule="evenodd"></path><path id="path4" d="M390.329 32.900 C 389.985 33.175,386.134 37.720,381.770 43.000 C 373.696 52.770,363.811 64.696,346.601 85.434 C 341.322 91.795,333.075 101.770,328.276 107.600 C 317.575 120.597,323.098 116.693,285.200 138.052 L 253.000 156.200 245.102 156.323 C 235.944 156.466,236.865 155.869,236.700 161.774 L 236.600 165.347 231.042 168.506 L 225.484 171.664 223.722 170.991 C 219.782 169.487,215.600 172.455,215.600 176.757 C 215.600 177.920,215.511 177.969,210.547 179.570 C 204.465 181.532,205.467 181.519,200.512 179.700 L 196.425 178.200 196.312 167.400 L 196.200 156.600 185.709 156.493 L 175.219 156.387 175.006 157.293 C 174.889 157.792,174.750 160.831,174.697 164.048 L 174.600 169.895 169.800 168.132 C 167.160 167.162,164.421 166.111,163.714 165.797 L 162.427 165.226 162.314 160.913 L 162.200 156.600 157.200 156.400 C 154.450 156.290,144.190 156.290,134.400 156.400 L 116.600 156.600 116.496 177.037 L 116.393 197.475 113.696 197.902 L 111.000 198.330 113.600 198.119 C 115.030 198.004,116.335 197.829,116.500 197.731 C 116.665 197.633,116.800 188.389,116.800 177.189 L 116.800 156.824 134.100 156.712 C 143.615 156.650,153.740 156.690,156.600 156.800 L 161.800 157.000 162.000 161.375 L 162.200 165.750 165.000 166.835 C 166.540 167.432,169.284 168.498,171.097 169.204 C 175.777 171.026,175.600 171.254,175.600 163.413 L 175.600 156.800 185.800 156.800 L 196.000 156.800 196.000 167.576 C 196.000 174.232,196.151 178.446,196.395 178.597 C 197.163 179.071,203.416 181.304,204.526 181.500 C 205.228 181.624,207.595 181.063,210.826 180.007 L 216.000 178.315 216.000 176.942 C 216.000 175.202,217.252 172.720,218.563 171.861 C 219.676 171.132,223.396 170.946,223.800 171.600 C 224.348 172.487,226.156 171.868,230.800 169.200 C 233.481 167.660,235.810 166.400,235.975 166.400 C 237.133 166.400,237.600 164.810,237.600 160.869 L 237.600 156.800 245.186 156.800 C 253.666 156.800,252.315 157.147,259.200 153.199 C 260.630 152.380,262.880 151.119,264.200 150.398 C 265.520 149.677,268.400 148.058,270.600 146.801 C 274.356 144.654,275.557 143.979,280.300 141.345 C 281.345 140.765,283.370 139.620,284.800 138.800 C 286.230 137.980,288.255 136.835,289.300 136.255 C 290.345 135.675,292.055 134.725,293.100 134.145 C 294.145 133.565,296.170 132.420,297.600 131.600 C 299.030 130.780,301.055 129.635,302.100 129.055 C 312.108 123.498,316.978 120.691,318.302 119.716 C 319.018 119.188,324.058 113.397,329.502 106.848 C 340.815 93.237,362.639 66.915,378.923 47.239 C 391.124 32.498,391.503 32.125,392.883 33.505 C 394.058 34.680,394.389 34.183,384.516 46.069 C 380.070 51.421,375.930 56.417,375.316 57.172 C 374.702 57.926,369.700 63.969,364.200 70.601 C 358.700 77.232,349.610 88.205,344.000 94.985 C 338.390 101.765,333.620 107.513,333.400 107.758 C 331.896 109.430,329.200 112.953,329.200 113.246 C 329.200 113.772,329.381 113.709,331.600 112.400 C 332.719 111.740,333.699 111.200,333.777 111.200 C 333.856 111.200,336.746 109.580,340.200 107.600 C 343.654 105.620,346.534 104.000,346.600 104.000 C 346.666 104.000,349.546 102.380,353.000 100.400 C 356.454 98.420,359.336 96.800,359.404 96.800 C 359.471 96.800,361.838 95.476,364.663 93.859 C 369.511 91.082,370.913 90.292,375.500 87.745 C 376.545 87.165,378.570 86.020,380.000 85.200 C 388.361 80.408,390.152 79.530,390.949 79.836 C 391.649 80.104,392.228 81.707,391.847 82.324 C 391.631 82.673,382.591 87.903,373.200 93.111 C 372.210 93.661,370.230 94.780,368.800 95.600 C 367.370 96.420,365.390 97.539,364.400 98.089 C 363.410 98.638,361.880 99.498,361.000 100.000 C 360.120 100.502,358.590 101.363,357.600 101.914 C 356.610 102.464,354.000 103.943,351.800 105.200 C 349.600 106.457,346.945 107.961,345.900 108.543 C 344.855 109.124,343.145 110.076,342.100 110.659 C 341.055 111.241,337.770 113.105,334.800 114.801 C 331.830 116.496,328.320 118.471,327.000 119.188 C 321.872 121.974,320.990 122.750,315.784 129.050 C 312.933 132.501,306.482 140.292,301.448 146.362 C 296.414 152.433,291.708 158.120,290.990 159.000 C 289.923 160.307,281.428 170.557,273.490 180.116 C 272.615 181.170,272.025 182.158,272.179 182.313 C 272.334 182.467,272.612 182.321,272.798 181.989 C 272.984 181.656,276.796 176.961,281.268 171.554 C 285.741 166.147,291.917 158.681,294.994 154.962 C 298.070 151.243,305.322 142.494,311.110 135.520 L 321.633 122.840 326.716 119.958 C 329.512 118.372,337.920 113.623,345.400 109.403 C 393.986 81.995,391.658 83.328,392.094 82.654 C 392.936 81.353,391.803 79.200,390.276 79.200 C 389.913 79.200,376.462 86.600,360.385 95.644 C 344.308 104.688,331.073 112.006,330.972 111.906 C 330.872 111.806,333.178 108.845,336.095 105.327 C 341.783 98.468,360.264 76.158,374.606 58.836 C 396.261 32.681,394.930 34.520,393.216 33.133 C 392.159 32.277,391.203 32.200,390.329 32.900 M387.955 107.868 C 386.221 109.555,384.869 111.002,384.950 111.083 C 385.030 111.164,386.324 109.958,387.825 108.403 C 390.709 105.416,391.966 104.762,393.105 105.655 C 393.734 106.148,393.748 106.133,393.251 105.500 C 392.265 104.243,391.183 104.727,387.955 107.868 M389.810 111.997 L 386.221 115.800 389.992 112.115 C 392.067 110.089,393.682 108.377,393.582 108.312 C 393.482 108.247,391.785 109.905,389.810 111.997 M378.192 118.100 L 374.200 122.200 378.300 118.208 C 380.555 116.012,382.400 114.167,382.400 114.108 C 382.400 113.818,381.901 114.292,378.192 118.100 M379.220 122.855 C 376.921 125.245,375.211 127.175,375.420 127.145 C 375.629 127.115,377.681 125.135,379.980 122.745 C 382.279 120.355,383.989 118.425,383.780 118.455 C 383.571 118.485,381.519 120.465,379.220 122.855 M369.207 127.354 L 365.415 131.400 369.507 127.408 C 371.758 125.212,373.600 123.367,373.600 123.308 C 373.600 122.832,372.475 123.868,369.207 127.354 M370.192 132.500 L 366.200 136.600 370.300 132.608 C 372.555 130.412,374.400 128.567,374.400 128.508 C 374.400 128.218,373.901 128.692,370.192 132.500 M304.259 132.011 C 301.211 133.766,297.521 135.856,296.059 136.655 C 294.597 137.454,291.600 139.138,289.400 140.397 C 287.200 141.656,284.590 143.136,283.600 143.687 C 278.650 146.441,277.405 147.143,272.400 150.000 C 266.705 153.252,264.392 154.552,260.800 156.524 C 257.816 158.162,258.013 157.121,258.006 171.300 L 258.000 184.000 259.100 183.975 C 260.157 183.950,260.165 183.935,259.300 183.588 L 258.400 183.226 258.406 171.113 C 258.409 164.451,258.544 158.808,258.706 158.573 C 258.994 158.155,261.466 156.740,289.600 140.892 C 297.190 136.616,304.411 132.526,305.646 131.803 C 306.882 131.080,308.322 130.356,308.846 130.194 L 309.800 129.901 308.957 130.850 C 308.494 131.373,305.443 135.040,302.178 139.000 C 298.912 142.960,293.252 149.800,289.599 154.200 C 285.947 158.600,279.394 166.520,275.038 171.800 C 270.682 177.080,266.677 181.805,266.137 182.300 C 265.203 183.156,265.195 183.200,265.978 183.200 C 266.430 183.200,266.800 183.029,266.800 182.820 C 266.800 182.531,280.045 166.356,286.145 159.197 C 286.615 158.645,289.068 155.675,291.596 152.597 C 294.123 149.519,299.400 143.160,303.321 138.467 C 312.840 127.074,312.841 127.068,304.259 132.011 M358.992 138.100 L 355.000 142.200 359.100 138.208 C 361.355 136.012,363.200 134.167,363.200 134.108 C 363.200 133.818,362.701 134.292,358.992 138.100 M359.607 143.354 L 355.815 147.400 359.907 143.408 C 362.158 141.212,364.000 139.367,364.000 139.308 C 364.000 138.832,362.875 139.868,359.607 143.354 M349.222 148.054 C 347.144 150.224,345.614 151.976,345.822 151.946 C 346.030 151.916,347.900 150.116,349.978 147.946 C 352.056 145.776,353.586 144.024,353.378 144.054 C 353.170 144.084,351.300 145.884,349.222 148.054 M350.192 153.300 L 346.200 157.400 350.300 153.408 C 352.555 151.212,354.400 149.367,354.400 149.308 C 354.400 149.018,353.901 149.492,350.192 153.300 M341.775 156.027 C 341.004 156.832,340.325 157.193,339.800 157.077 C 339.360 156.979,337.560 156.568,335.800 156.164 C 321.277 152.830,305.076 157.311,299.356 166.244 C 297.140 169.705,294.981 180.000,296.472 180.000 C 296.652 180.000,296.800 178.749,296.800 177.220 C 296.800 161.216,314.217 152.200,336.200 156.824 C 340.624 157.754,340.494 157.768,341.978 156.229 C 342.737 155.443,343.265 154.800,343.153 154.800 C 343.041 154.800,342.421 155.352,341.775 156.027 M75.000 155.430 C 60.663 157.417,52.708 164.778,52.120 176.600 C 51.582 187.414,55.661 193.948,66.626 199.835 C 68.592 200.890,70.317 201.925,70.460 202.135 C 70.602 202.345,71.052 202.389,71.460 202.232 C 72.043 202.008,71.658 201.696,69.646 200.760 C 57.339 195.036,52.775 188.950,52.716 178.182 C 52.671 170.098,55.274 164.765,61.170 160.856 C 63.189 159.518,64.103 159.028,66.600 157.946 C 71.076 156.007,83.874 155.134,89.800 156.365 C 97.372 157.938,104.798 160.402,104.802 161.343 C 104.804 161.828,102.820 167.053,101.555 169.896 C 101.140 170.828,100.800 171.776,100.800 172.001 C 100.800 172.226,100.635 172.723,100.434 173.105 C 100.232 173.487,99.778 174.467,99.424 175.282 L 98.780 176.763 96.944 175.976 C 88.337 172.287,79.695 171.011,75.779 172.852 C 72.089 174.586,71.826 178.284,75.191 181.112 C 75.526 181.394,79.942 183.670,85.005 186.171 C 95.859 191.531,102.400 196.263,102.400 198.756 C 102.400 199.273,104.239 199.288,106.800 198.792 C 108.358 198.490,108.248 198.470,105.982 198.645 L 103.364 198.846 101.501 196.447 C 98.854 193.038,95.068 190.552,85.000 185.611 C 73.834 180.131,72.182 178.623,73.750 175.336 C 75.689 171.269,84.721 171.622,96.127 176.210 C 97.682 176.835,98.997 177.155,99.188 176.953 C 100.174 175.911,105.602 161.047,105.116 160.720 C 99.898 157.212,83.246 154.287,75.000 155.430 M344.800 158.865 C 344.800 159.055,345.788 159.647,346.996 160.181 C 349.282 161.192,349.278 161.181,348.417 163.400 C 347.885 164.772,347.327 166.153,346.800 167.400 C 346.155 168.926,345.909 169.555,344.567 173.105 C 343.178 176.782,343.014 176.904,340.800 175.920 C 337.846 174.607,336.935 174.274,333.277 173.175 L 331.554 172.657 329.677 174.623 L 327.800 176.588 329.605 174.904 L 331.409 173.221 334.205 174.050 C 335.742 174.506,338.320 175.425,339.934 176.091 C 343.626 177.616,343.243 178.012,346.777 169.013 C 350.173 160.369,350.141 161.063,347.200 159.662 C 345.880 159.033,344.800 158.675,344.800 158.865 M162.000 171.077 C 162.000 173.058,161.542 173.200,155.134 173.200 C 149.916 173.200,149.185 173.282,148.860 173.900 C 148.435 174.707,145.909 183.503,145.844 184.400 C 145.807 184.905,146.907 185.032,152.800 185.200 L 159.800 185.400 160.000 189.400 L 160.200 193.400 161.400 193.463 C 162.206 193.506,162.304 193.464,161.700 193.336 C 160.849 193.155,160.800 192.952,160.800 189.605 C 160.800 184.397,161.408 184.800,153.545 184.800 C 145.494 184.800,145.961 185.270,147.803 179.014 C 149.550 173.081,148.714 173.642,156.009 173.511 L 162.200 173.400 162.400 172.084 C 162.661 170.370,162.156 170.313,168.899 172.813 L 174.797 175.000 174.799 183.053 C 174.800 192.276,175.313 191.212,170.400 192.192 C 167.245 192.821,168.384 192.955,172.000 192.381 C 175.641 191.802,175.601 191.901,175.595 183.424 C 175.588 174.369,175.712 174.786,172.677 173.655 C 171.314 173.148,168.850 172.215,167.200 171.581 C 162.381 169.732,162.000 169.695,162.000 171.077 M234.600 171.366 C 226.215 175.980,227.005 175.360,226.645 177.612 C 226.214 180.304,224.221 181.598,220.486 181.610 C 215.864 181.626,209.826 183.849,212.267 184.636 C 212.670 184.766,213.360 185.022,213.800 185.205 C 214.240 185.388,215.461 185.849,216.513 186.228 C 217.565 186.608,218.521 187.072,218.637 187.259 C 218.752 187.447,219.602 187.579,220.524 187.554 C 221.446 187.528,221.840 187.424,221.400 187.323 C 219.505 186.885,212.800 184.282,212.800 183.984 C 212.800 183.313,217.473 182.238,220.470 182.219 C 224.613 182.193,226.580 180.649,227.377 176.800 C 227.540 176.013,228.545 175.272,232.092 173.323 L 236.600 170.847 236.709 178.094 C 236.793 183.612,236.697 185.425,236.309 185.692 C 235.954 185.937,236.041 186.005,236.600 185.916 C 237.438 185.784,238.105 171.140,237.309 170.352 C 237.139 170.184,235.920 170.640,234.600 171.366 M320.600 172.484 C 319.097 173.011,318.078 173.890,317.359 175.279 C 316.511 176.920,316.680 177.064,317.986 175.814 C 318.638 175.189,319.090 174.545,318.990 174.384 C 318.890 174.222,319.122 174.115,319.504 174.145 C 319.887 174.175,320.156 173.979,320.103 173.708 C 320.033 173.355,320.540 173.267,321.903 173.396 C 322.946 173.494,323.483 173.477,323.095 173.357 C 321.968 173.009,322.717 172.400,324.273 172.400 C 325.494 172.400,325.627 172.486,325.200 173.000 C 324.926 173.330,324.861 173.600,325.055 173.600 C 325.249 173.600,325.632 173.240,325.907 172.800 C 326.488 171.869,322.954 171.659,320.600 172.484 M137.443 173.833 C 137.309 174.181,137.200 176.596,137.200 179.200 C 137.200 185.182,137.207 185.200,139.594 185.200 C 141.696 185.200,141.696 185.200,142.808 181.200 C 143.839 177.492,144.111 176.576,144.451 175.681 C 145.329 173.369,145.110 173.200,141.243 173.200 C 138.368 173.200,137.639 173.321,137.443 173.833 M144.125 173.900 C 144.219 174.065,143.629 176.540,142.813 179.400 L 141.328 184.600 139.664 184.723 L 138.000 184.846 138.000 179.223 L 138.000 173.600 140.976 173.600 C 142.613 173.600,144.030 173.735,144.125 173.900 M291.400 180.400 C 290.053 180.641,289.990 180.691,291.000 180.714 C 291.660 180.729,293.010 180.597,294.000 180.420 C 295.615 180.133,295.656 180.101,294.400 180.107 C 293.630 180.111,292.280 180.242,291.400 180.400 M285.300 181.076 C 285.685 181.176,286.315 181.176,286.700 181.076 C 287.085 180.975,286.770 180.893,286.000 180.893 C 285.230 180.893,284.915 180.975,285.300 181.076 M282.500 181.476 C 282.885 181.576,283.515 181.576,283.900 181.476 C 284.285 181.375,283.970 181.293,283.200 181.293 C 282.430 181.293,282.115 181.375,282.500 181.476 M275.200 182.000 C 273.201 182.421,275.252 182.438,277.600 182.020 C 279.224 181.732,279.263 181.700,278.000 181.703 C 277.230 181.704,275.970 181.838,275.200 182.000 M196.000 183.533 C 196.000 184.606,196.361 184.801,197.440 184.309 C 198.641 183.762,198.660 183.363,197.500 183.052 C 196.146 182.689,196.000 182.736,196.000 183.533 M260.900 183.476 C 261.285 183.576,261.915 183.576,262.300 183.476 C 262.685 183.375,262.370 183.293,261.600 183.293 C 260.830 183.293,260.515 183.375,260.900 183.476 M325.503 183.695 C 325.284 184.251,325.686 184.598,327.515 185.430 C 341.397 191.748,345.503 195.154,348.459 202.800 C 350.651 208.471,348.606 218.728,344.206 224.129 C 335.874 234.358,312.944 237.011,297.366 229.548 L 296.200 228.990 296.092 220.423 C 295.969 210.662,295.966 210.672,298.689 211.982 C 310.445 217.637,324.068 218.763,327.752 214.384 C 330.811 210.749,328.605 207.768,319.768 203.593 C 308.497 198.267,305.647 196.554,302.332 193.114 C 300.084 190.781,297.600 186.430,297.600 184.825 C 297.600 184.130,297.364 184.007,296.100 184.047 C 294.697 184.092,294.675 184.111,295.753 184.347 C 296.691 184.553,297.014 184.940,297.487 186.424 C 299.456 192.603,303.890 196.348,316.608 202.576 C 328.272 208.287,329.776 209.780,327.772 213.655 C 325.375 218.289,311.760 217.250,298.629 211.432 C 295.516 210.053,295.612 209.780,295.612 220.000 C 295.612 229.734,295.479 229.237,298.431 230.542 C 309.278 235.339,325.972 235.550,335.800 231.013 C 346.010 226.301,351.354 216.510,349.539 205.842 C 347.943 196.456,342.496 191.292,327.312 184.768 C 326.603 184.464,325.968 183.942,325.900 183.607 C 325.798 183.109,325.727 183.125,325.503 183.695 M292.500 184.676 C 292.885 184.776,293.515 184.776,293.900 184.676 C 294.285 184.575,293.970 184.493,293.200 184.493 C 292.430 184.493,292.115 184.575,292.500 184.676 M285.000 185.200 C 283.653 185.441,283.590 185.491,284.600 185.514 C 285.260 185.529,286.610 185.397,287.600 185.220 C 289.215 184.933,289.256 184.901,288.000 184.907 C 287.230 184.911,285.880 185.042,285.000 185.200 M277.000 186.000 C 275.639 186.244,275.579 186.292,276.600 186.320 C 277.260 186.339,278.520 186.205,279.400 186.023 C 281.493 185.590,279.402 185.570,277.000 186.000 M200.005 187.301 C 196.251 188.586,194.495 190.072,196.871 189.954 C 197.548 189.920,197.610 189.858,197.100 189.724 C 195.724 189.365,196.460 188.933,200.649 187.641 L 204.899 186.330 206.949 187.126 C 208.077 187.563,208.955 188.119,208.900 188.360 C 208.777 188.902,210.778 188.931,211.600 188.400 C 212.089 188.084,212.039 188.011,211.333 188.006 C 210.856 188.003,209.626 187.640,208.598 187.199 C 205.463 185.855,204.184 185.870,200.005 187.301 M233.700 186.276 C 234.085 186.376,234.715 186.376,235.100 186.276 C 235.485 186.175,235.170 186.093,234.400 186.093 C 233.630 186.093,233.315 186.175,233.700 186.276 M226.400 186.800 C 224.401 187.221,226.452 187.238,228.800 186.820 C 230.424 186.532,230.463 186.500,229.200 186.503 C 228.430 186.504,227.170 186.638,226.400 186.800 M268.869 186.797 C 268.136 186.970,267.269 187.494,266.941 187.962 C 266.614 188.430,264.935 190.500,263.210 192.563 C 259.187 197.376,258.675 198.176,258.988 199.164 C 259.129 199.605,258.963 200.790,258.622 201.797 C 258.165 203.141,258.000 205.271,258.000 209.809 L 258.000 215.990 272.500 216.095 L 287.000 216.200 287.108 224.500 L 287.216 232.800 262.408 232.800 L 237.600 232.800 237.600 215.649 C 237.600 202.399,237.486 198.411,237.100 198.114 C 236.825 197.903,235.520 197.324,234.200 196.826 C 232.880 196.329,231.440 195.777,231.000 195.600 C 230.560 195.423,229.120 194.883,227.800 194.400 C 224.728 193.276,223.650 192.832,222.338 192.151 C 221.754 191.848,220.674 191.618,219.938 191.641 L 218.600 191.682 219.800 192.000 C 220.460 192.175,224.510 193.654,228.800 195.285 L 236.600 198.252 236.704 215.280 C 236.788 228.998,236.914 232.396,237.349 232.758 C 237.738 233.081,244.807 233.177,262.645 233.103 L 287.400 233.000 287.508 224.629 C 287.592 218.199,287.499 216.183,287.108 215.935 C 286.829 215.757,280.255 215.609,272.500 215.606 L 258.400 215.600 258.406 209.700 C 258.410 205.446,258.583 203.309,259.024 202.040 C 259.362 201.072,259.535 199.812,259.409 199.240 C 259.217 198.360,259.819 197.430,263.323 193.200 C 268.346 187.137,268.155 187.297,270.833 186.853 C 272.455 186.584,272.648 186.492,271.600 186.488 C 270.830 186.485,269.601 186.624,268.869 186.797 M260.800 187.600 C 259.600 187.787,259.367 187.900,260.100 187.940 C 261.484 188.016,261.475 188.181,259.995 189.867 C 258.693 191.350,258.113 191.012,258.499 188.993 C 258.604 188.447,258.534 188.000,258.345 188.000 C 258.155 188.000,258.000 188.984,258.000 190.187 C 258.000 192.921,258.428 192.833,260.990 189.571 C 262.015 188.267,262.796 187.227,262.727 187.260 C 262.657 187.293,261.790 187.446,260.800 187.600 M202.000 189.200 C 200.001 189.621,202.052 189.638,204.400 189.220 C 206.024 188.932,206.063 188.900,204.800 188.903 C 204.030 188.904,202.770 189.038,202.000 189.200 M235.700 190.287 C 236.672 190.434,237.530 193.200,236.604 193.200 C 235.609 193.200,231.230 191.027,231.667 190.750 C 232.353 190.315,230.123 190.330,229.001 190.768 C 228.298 191.042,228.346 191.105,229.401 191.289 C 230.060 191.404,231.859 191.971,233.398 192.549 C 237.344 194.031,237.600 193.985,237.600 191.800 L 237.600 190.000 236.100 190.060 C 234.893 190.108,234.815 190.152,235.700 190.287 M211.800 192.400 C 210.453 192.641,210.390 192.691,211.400 192.714 C 212.060 192.729,213.410 192.597,214.400 192.420 C 216.015 192.133,216.056 192.101,214.800 192.107 C 214.030 192.111,212.680 192.242,211.800 192.400 M163.300 193.076 C 163.685 193.176,164.315 193.176,164.700 193.076 C 165.085 192.975,164.770 192.893,164.000 192.893 C 163.230 192.893,162.915 192.975,163.300 193.076 M205.700 193.076 C 206.085 193.176,206.715 193.176,207.100 193.076 C 207.485 192.975,207.170 192.893,206.400 192.893 C 205.630 192.893,205.315 192.975,205.700 193.076 M202.900 193.476 C 203.285 193.576,203.915 193.576,204.300 193.476 C 204.685 193.375,204.370 193.293,203.600 193.293 C 202.830 193.293,202.515 193.375,202.900 193.476 M196.500 193.865 C 196.117 194.019,196.000 196.634,196.000 205.033 L 196.000 216.000 210.100 216.006 C 217.855 216.009,224.429 216.158,224.709 216.335 C 225.099 216.583,225.192 218.519,225.109 224.629 L 225.000 232.600 200.304 232.703 L 175.608 232.806 175.504 214.503 L 175.400 196.200 173.042 196.309 C 171.745 196.369,170.125 196.675,169.442 196.990 C 168.759 197.306,166.421 198.138,164.247 198.840 C 161.399 199.760,160.240 200.324,160.101 200.858 C 159.940 201.474,159.509 201.600,157.572 201.600 C 156.288 201.600,154.824 201.765,154.319 201.968 C 153.813 202.170,150.430 203.276,146.800 204.425 C 138.781 206.964,137.600 208.213,137.600 214.156 L 137.600 215.988 149.700 216.094 L 161.800 216.200 161.800 224.400 L 161.800 232.600 147.035 232.705 C 131.514 232.815,131.442 232.824,131.076 234.713 C 130.961 235.311,130.671 236.475,130.433 237.300 C 129.884 239.202,129.302 241.238,128.833 242.900 C 128.631 243.615,127.176 248.610,125.600 254.000 C 122.468 264.710,122.255 265.445,121.600 267.800 C 121.033 269.837,120.452 271.872,120.000 273.400 C 119.565 274.871,118.973 276.940,118.455 278.800 C 118.241 279.570,116.596 285.240,114.800 291.400 C 113.004 297.560,111.369 303.185,111.167 303.900 C 110.653 305.720,110.066 307.773,109.623 309.300 C 108.640 312.685,108.318 313.881,108.126 314.868 C 107.674 317.193,105.859 318.191,104.604 316.804 C 103.909 316.036,103.921 315.883,104.975 312.304 C 105.574 310.267,106.241 307.970,106.455 307.200 C 106.670 306.430,107.015 305.215,107.223 304.500 C 107.430 303.785,107.780 302.570,108.000 301.800 C 108.220 301.030,108.570 299.815,108.777 299.100 C 108.985 298.385,109.355 297.080,109.600 296.200 C 109.845 295.320,110.205 294.060,110.400 293.400 C 110.595 292.740,110.930 291.570,111.145 290.800 C 111.359 290.030,112.824 284.990,114.400 279.600 C 115.976 274.210,117.441 269.170,117.655 268.400 C 118.173 266.540,118.765 264.471,119.200 263.000 C 119.590 261.682,120.128 259.807,120.777 257.500 C 121.010 256.675,121.365 255.415,121.567 254.700 C 121.769 253.985,123.209 248.990,124.767 243.600 C 126.325 238.211,127.600 233.581,127.600 233.312 C 127.600 232.957,126.147 232.793,122.300 232.712 L 117.000 232.600 116.892 223.500 C 116.780 213.941,116.786 213.970,115.033 214.643 C 114.625 214.799,114.400 215.376,114.400 216.263 C 114.400 220.097,110.701 222.484,106.892 221.106 C 105.564 220.626,105.488 220.656,104.101 222.206 C 103.317 223.083,100.499 226.056,97.838 228.813 C 95.177 231.570,91.386 235.530,89.413 237.613 C 87.440 239.696,83.660 243.656,81.013 246.413 C 78.366 249.170,74.666 253.040,72.791 255.013 C 56.416 272.245,46.238 282.877,39.948 289.324 C 36.534 292.823,35.168 294.610,35.214 295.519 C 35.222 295.673,35.447 295.414,35.714 294.941 C 36.156 294.160,42.932 286.934,54.600 274.800 C 57.033 272.270,60.818 268.313,63.012 266.007 C 65.205 263.700,68.993 259.740,71.429 257.207 C 73.865 254.673,76.475 251.938,77.229 251.128 C 90.182 237.219,105.891 221.229,106.396 221.438 C 110.016 222.937,114.124 220.911,114.671 217.357 C 114.917 215.762,115.432 214.800,116.041 214.800 C 116.230 214.800,116.433 218.895,116.492 223.900 L 116.600 233.000 121.923 233.112 C 126.746 233.213,127.226 233.288,127.032 233.912 C 126.914 234.290,124.473 242.790,121.606 252.800 C 118.740 262.810,115.775 273.070,115.018 275.600 C 113.706 279.980,105.295 309.184,104.131 313.400 C 103.256 316.566,104.288 318.416,106.604 317.835 C 107.751 317.547,107.981 316.934,111.428 305.000 C 114.746 293.510,123.626 262.701,128.460 245.905 L 132.114 233.210 147.157 233.105 L 162.200 233.000 162.200 224.400 L 162.200 215.800 150.050 215.694 L 137.899 215.588 138.095 213.694 C 138.202 212.652,138.593 210.783,138.962 209.541 L 139.633 207.281 147.317 204.782 C 151.542 203.408,155.900 202.210,157.000 202.120 C 160.002 201.874,160.800 201.642,160.800 201.018 C 160.800 200.469,170.061 197.200,173.382 196.577 L 174.800 196.311 174.800 214.275 C 174.800 227.715,174.921 232.361,175.280 232.720 C 176.052 233.492,224.932 233.405,225.575 232.630 C 226.336 231.713,225.993 216.491,225.200 215.991 C 224.852 215.772,218.666 215.610,210.493 215.606 L 196.387 215.600 196.493 204.900 L 196.600 194.200 198.200 193.957 L 199.800 193.714 198.400 193.688 C 197.630 193.674,196.775 193.754,196.500 193.865 M62.700 201.482 C 63.195 201.578,64.005 201.578,64.500 201.482 C 64.995 201.387,64.590 201.309,63.600 201.309 C 62.610 201.309,62.205 201.387,62.700 201.482 M59.507 202.767 C 58.788 203.409,58.290 203.994,58.400 204.067 C 58.510 204.140,59.202 203.615,59.937 202.900 C 61.600 201.284,61.278 201.184,59.507 202.767 M114.400 202.012 C 113.051 202.294,113.062 202.301,114.700 202.202 L 116.400 202.098 116.400 206.019 L 116.400 209.940 114.330 210.547 C 112.944 210.953,112.028 211.029,111.556 210.777 C 110.615 210.273,107.739 210.297,106.768 210.817 C 105.786 211.342,105.734 211.184,105.413 206.728 L 105.163 203.257 106.281 203.088 C 107.328 202.931,107.336 202.916,106.400 202.866 C 104.621 202.770,104.522 203.089,104.930 207.600 C 105.358 212.331,105.350 212.305,106.204 211.597 C 106.797 211.104,108.650 210.985,112.221 211.208 C 113.112 211.263,114.513 211.066,115.333 210.770 L 116.825 210.230 116.713 206.048 C 116.592 201.585,116.577 201.557,114.400 202.012 M108.100 202.676 C 108.485 202.776,109.115 202.776,109.500 202.676 C 109.885 202.575,109.570 202.493,108.800 202.493 C 108.030 202.493,107.715 202.575,108.100 202.676 M57.843 205.433 C 57.515 206.287,57.547 207.697,57.906 208.262 C 58.068 208.516,58.200 207.841,58.200 206.762 C 58.200 204.581,58.187 204.535,57.843 205.433 M73.400 206.000 C 72.053 206.241,71.990 206.291,73.000 206.314 C 73.660 206.329,75.010 206.197,76.000 206.020 C 77.615 205.733,77.656 205.701,76.400 205.707 C 75.630 205.711,74.280 205.842,73.400 206.000 M81.124 207.023 C 83.348 208.521,84.000 209.598,84.000 211.772 C 84.000 216.700,76.685 217.826,63.668 214.904 C 63.155 214.789,62.581 214.313,62.393 213.847 C 62.068 213.043,62.049 213.052,62.025 214.008 C 61.966 216.367,77.507 218.118,81.386 216.189 C 84.380 214.700,85.472 211.920,84.083 209.321 C 83.341 207.931,80.562 205.629,79.605 205.611 C 79.278 205.605,79.962 206.240,81.124 207.023 M68.950 206.987 C 68.826 207.310,68.817 207.805,68.931 208.087 C 69.044 208.369,69.151 208.210,69.168 207.733 C 69.186 207.257,69.425 206.776,69.700 206.665 C 70.092 206.507,70.089 206.456,69.687 206.432 C 69.406 206.414,69.074 206.664,68.950 206.987 M67.599 210.500 C 67.010 211.304,66.913 211.584,67.345 211.233 C 68.001 210.700,68.993 209.200,68.689 209.200 C 68.613 209.200,68.122 209.785,67.599 210.500 M51.867 210.667 C 51.720 210.813,51.618 214.998,51.640 219.967 C 51.678 228.672,51.931 231.795,52.481 230.364 C 52.616 230.014,52.565 229.474,52.369 229.164 C 52.173 228.854,52.009 224.664,52.006 219.853 C 51.999 209.959,51.626 210.751,55.500 212.442 C 57.251 213.206,57.684 213.269,58.100 212.821 C 58.501 212.389,58.498 212.340,58.087 212.573 C 57.803 212.733,56.397 212.312,54.942 211.632 C 51.957 210.235,52.217 210.316,51.867 210.667 M63.600 212.400 C 62.216 212.691,62.214 212.695,63.400 212.741 C 64.060 212.767,64.870 212.613,65.200 212.400 C 65.866 211.970,65.645 211.970,63.600 212.400 M56.000 231.455 C 56.000 231.645,56.405 231.829,56.900 231.864 C 57.395 231.899,59.240 232.306,61.000 232.768 C 67.786 234.550,79.825 234.686,85.999 233.049 C 87.209 232.728,88.234 232.500,88.276 232.543 C 88.390 232.657,83.935 237.396,72.614 249.204 C 67.345 254.700,63.294 258.947,52.399 270.400 C 47.900 275.130,42.909 280.322,41.309 281.938 C 39.709 283.554,38.404 285.084,38.409 285.338 C 38.414 285.592,39.257 284.900,40.281 283.800 C 41.305 282.700,44.316 279.544,46.972 276.787 C 49.627 274.030,53.414 270.070,55.387 267.987 C 57.360 265.904,61.140 261.944,63.787 259.187 C 66.434 256.430,70.214 252.470,72.187 250.387 C 74.160 248.304,77.940 244.348,80.587 241.596 C 91.038 230.729,90.704 231.275,86.181 232.467 C 79.930 234.113,67.134 233.935,60.400 232.107 C 57.217 231.243,56.000 231.063,56.000 231.455 M32.400 290.754 C 32.400 291.285,30.444 293.417,19.212 305.128 C 11.197 313.484,10.532 314.352,11.196 315.592 C 12.295 317.647,14.082 317.532,16.036 315.281 C 20.729 309.875,28.590 302.206,28.132 303.479 C 27.989 303.876,27.977 304.109,28.104 303.999 C 28.232 303.888,28.608 303.007,28.941 302.041 C 29.518 300.366,29.309 300.535,24.482 305.642 C 12.734 318.071,13.072 317.808,11.687 315.590 C 10.984 314.465,14.381 310.539,28.227 296.477 C 31.652 292.998,33.122 290.989,32.615 290.482 C 32.497 290.363,32.400 290.486,32.400 290.754 M17.843 335.033 C 16.922 337.432,19.750 339.658,21.232 337.700 C 21.682 337.104,21.678 337.075,21.201 337.500 C 19.707 338.832,17.738 337.609,18.140 335.599 C 18.398 334.309,18.238 334.003,17.843 335.033 " stroke="none" fill="#8fa2b8" fill-rule="evenodd"></path></g></svg>